<?xml version="1.0" encoding="UTF-8"?> <svg xmlns="http://www.w3.org/2000/svg" width="297" height="83" viewBox="0 0 297 83" fill="none"><path d="M59.1971 45.6217C61.1975 45.6217 62.8192 43.9999 62.8192 41.9992C62.8192 39.9985 61.1975 38.3766 59.1971 38.3766C57.1967 38.3766 55.5751 39.9985 55.5751 41.9992C55.5751 43.9999 57.1967 45.6217 59.1971 45.6217Z" fill="white"></path><path d="M49.2097 35.6567C50.5674 35.6567 51.668 34.556 51.668 33.1982C51.668 31.8403 50.5674 30.7396 49.2097 30.7396C47.8521 30.7396 46.7515 31.8403 46.7515 33.1982C46.7515 34.556 47.8521 35.6567 49.2097 35.6567Z" fill="white"></path><path d="M49.2097 53.235C50.5674 53.235 51.668 52.1343 51.668 50.7764C51.668 49.4186 50.5674 48.3178 49.2097 48.3178C47.8521 48.3178 46.7515 49.4186 46.7515 50.7764C46.7515 52.1343 47.8521 53.235 49.2097 53.235Z" fill="white"></path><path d="M53.9956 16C39.6381 16 28 27.6397 28 41.9992C28 56.3587 39.6381 67.9984 53.9956 67.9984C68.3532 67.9984 79.9913 56.3587 79.9913 41.9992C79.9913 27.6397 68.3532 16 53.9956 16ZM53.9956 65.4685C41.0394 65.4685 30.5295 54.9691 30.5295 41.9992C30.5295 29.0293 41.0394 18.5417 53.9956 18.5417C66.9519 18.5417 77.4618 29.0412 77.4618 42.0111C77.4618 54.981 66.9519 65.4685 53.9956 65.4685Z" fill="white"></path><path d="M104.333 20.7784H112.067L118.36 30.997L124.654 20.7784H132.388V47.1875H125.108V32.0208L118.379 42.3531H118.228L111.536 32.0966V47.1875H104.333V20.7784Z" fill="white"></path><path d="M150.282 47.7184C148.254 47.7184 146.358 47.3581 144.614 46.6377C142.87 45.9173 141.373 44.9504 140.122 43.7181C138.87 42.4858 137.885 41.045 137.164 39.3766C136.444 37.7083 136.084 35.9452 136.084 34.0493V33.9735C136.084 32.0777 136.444 30.3145 137.164 28.6272C137.885 26.9589 138.889 25.4991 140.159 24.2478C141.448 22.9966 142.946 22.0297 144.69 21.3093C146.434 20.5888 148.31 20.2286 150.358 20.2286C152.386 20.2286 154.282 20.5888 156.025 21.3093C157.769 22.0297 159.248 22.9966 160.518 24.2289C161.769 25.4612 162.755 26.902 163.475 28.5703C164.195 30.2387 164.556 32.0018 164.556 33.8977V33.9735C164.556 35.8693 164.195 37.6325 163.475 39.3198C162.755 40.9881 161.75 42.4479 160.48 43.6992C159.191 44.9504 157.694 45.9173 155.95 46.6377C154.206 47.3581 152.329 47.7184 150.282 47.7184ZM150.339 41.1208C151.343 41.1208 152.272 40.9312 153.106 40.5521C153.94 40.1729 154.642 39.661 155.229 39.0164C155.817 38.3719 156.272 37.6325 156.594 36.7793C156.916 35.9262 157.087 35.0162 157.087 34.0683V33.9925C157.087 33.0445 156.916 32.1345 156.594 31.2814C156.272 30.4283 155.798 29.6699 155.191 29.0254C154.585 28.3808 153.864 27.8499 153.03 27.4518C152.196 27.0537 151.286 26.8641 150.263 26.8641C149.239 26.8641 148.348 27.0537 147.514 27.4328C146.699 27.812 145.979 28.3239 145.391 28.9685C144.804 29.6131 144.349 30.3524 144.026 31.2056C143.704 32.0587 143.553 32.9687 143.553 33.9166V33.9925C143.553 34.9404 143.723 35.8504 144.045 36.7035C144.368 37.5566 144.842 38.315 145.429 38.9596C146.017 39.6231 146.737 40.135 147.571 40.5331C148.405 40.9312 149.334 41.1208 150.339 41.1208Z" fill="white"></path><path d="M178.261 47.6425C175.891 47.6425 173.654 47.2823 171.531 46.5429C169.408 45.8036 167.532 44.704 165.883 43.2442L169.958 38.3719C172.593 40.4762 175.455 41.5379 178.526 41.5379C179.512 41.5379 180.251 41.3862 180.763 41.0639C181.275 40.7417 181.54 40.3056 181.54 39.7179V39.6421C181.54 39.3577 181.483 39.1112 181.35 38.9027C181.218 38.6941 180.99 38.4856 180.649 38.2771C180.308 38.0685 179.853 37.8789 179.284 37.6894C178.716 37.4998 177.976 37.3102 177.085 37.1016C175.683 36.7793 174.375 36.4191 173.162 36.021C171.948 35.6229 170.906 35.13 170.015 34.5233C169.124 33.9166 168.423 33.1393 167.911 32.2293C167.399 31.3193 167.134 30.1818 167.134 28.8168V28.741C167.134 27.5087 167.361 26.3712 167.835 25.3474C168.309 24.3237 168.972 23.4326 169.863 22.6743C170.754 21.9159 171.835 21.3282 173.086 20.9301C174.337 20.513 175.758 20.3045 177.351 20.3045C179.606 20.3045 181.635 20.6078 183.398 21.1955C185.179 21.7832 186.772 22.6743 188.212 23.8307L184.554 29.0064C183.341 28.1533 182.109 27.5087 180.839 27.0726C179.569 26.6366 178.336 26.4091 177.161 26.4091C176.289 26.4091 175.626 26.5797 175.19 26.902C174.754 27.2243 174.526 27.6224 174.526 28.1153V28.1912C174.526 28.4945 174.602 28.7599 174.735 28.9874C174.868 29.2149 175.114 29.4235 175.455 29.6131C175.796 29.8026 176.251 29.9922 176.858 30.1818C177.446 30.3714 178.204 30.561 179.095 30.7695C180.611 31.0918 181.976 31.471 183.189 31.926C184.402 32.362 185.445 32.8929 186.298 33.5185C187.151 34.1441 187.814 34.9025 188.25 35.7935C188.705 36.6846 188.933 37.7462 188.933 38.9785V39.0544C188.933 40.4194 188.667 41.6137 188.156 42.6754C187.644 43.7371 186.923 44.6281 185.995 45.3675C185.066 46.1069 183.947 46.6756 182.639 47.0548C181.331 47.4529 179.872 47.6425 178.261 47.6425Z" fill="white"></path><path d="M198.43 27.1864H190.506V20.7784H213.67V27.1864H205.747V47.1875H198.43V27.1864Z" fill="white"></path><path d="M222.162 20.5888H229.214L240.455 47.1875H232.607L230.692 42.4669H220.513L218.618 47.1875H210.922L222.162 20.5888ZM228.588 36.8173L225.65 29.3097L222.674 36.8173H228.588Z" fill="white"></path><path d="M242.293 41.8792L255.544 26.9778H242.748V20.7974H265.647V26.1247L252.397 41.026H265.647V47.2065H242.293V41.8792Z" fill="white"></path><path d="M278.689 20.5888H285.74L296.981 47.1875H289.133L287.2 42.4669H277.02L275.125 47.1875H267.429L278.689 20.5888ZM285.115 36.8173L282.176 29.3097L279.2 36.8173H285.115Z" fill="white"></path><path d="M107.499 56.4203H109.489L112.655 63.8899H110.456L109.906 62.5628H107.044L106.513 63.8899H104.352L107.499 56.4203ZM109.299 60.9893L108.465 58.8849L107.631 60.9893H109.299Z" fill="white"></path><path d="M118.284 61.9562C118.038 61.9562 117.81 61.9182 117.583 61.8235C117.375 61.7287 117.185 61.596 117.014 61.4443C116.844 61.2737 116.73 61.0841 116.635 60.8755C116.54 60.667 116.484 60.4205 116.484 60.1741V60.1551C116.484 59.9086 116.54 59.6812 116.635 59.4536C116.73 59.2451 116.863 59.0555 117.014 58.8849C117.185 58.7143 117.375 58.6005 117.583 58.5057C117.792 58.4109 118.038 58.373 118.284 58.373C118.531 58.373 118.758 58.4109 118.986 58.5057C119.194 58.6005 119.384 58.7332 119.554 58.8849C119.725 59.0555 119.839 59.2451 119.934 59.4536C120.028 59.6622 120.085 59.9086 120.085 60.1551V60.1741C120.085 60.4205 120.028 60.648 119.934 60.8755C119.839 61.0841 119.706 61.2737 119.554 61.4443C119.384 61.6149 119.194 61.7287 118.986 61.8235C118.758 61.9182 118.531 61.9562 118.284 61.9562Z" fill="white"></path><path d="M126.341 58.2782H124.104V56.4772H130.625V58.2782H128.407V63.8899H126.341V58.2782Z" fill="white"></path><path d="M134.094 56.4203H136.084L139.25 63.8899H137.051L136.501 62.5628H133.639L133.108 63.8899H130.947L134.094 56.4203ZM135.894 60.9893L135.06 58.8849L134.226 60.9893H135.894Z" fill="white"></path><path d="M142.889 64.0226C142.226 64.0226 141.6 63.9278 140.993 63.7193C140.387 63.5107 139.875 63.2074 139.401 62.7903L140.539 61.4253C141.278 62.013 142.074 62.3164 142.946 62.3164C143.23 62.3164 143.439 62.2784 143.571 62.1836C143.723 62.0888 143.78 61.9751 143.78 61.8045V61.7855C143.78 61.7097 143.761 61.6338 143.723 61.577C143.685 61.5201 143.628 61.4632 143.534 61.4063C143.439 61.3495 143.306 61.2926 143.154 61.2357C143.003 61.1788 142.794 61.122 142.529 61.0651C142.131 60.9703 141.771 60.8755 141.429 60.7618C141.088 60.648 140.804 60.5153 140.539 60.3447C140.292 60.174 140.084 59.9655 139.951 59.7001C139.799 59.4347 139.742 59.1313 139.742 58.7332V58.7143C139.742 58.373 139.799 58.0507 139.932 57.7663C140.065 57.482 140.254 57.2355 140.501 57.008C140.747 56.7995 141.05 56.6288 141.41 56.5151C141.771 56.4013 142.169 56.3445 142.605 56.3445C143.249 56.3445 143.818 56.4203 144.311 56.5909C144.804 56.7615 145.259 57.008 145.657 57.3303L144.633 58.7901C144.292 58.5436 143.951 58.373 143.59 58.2403C143.23 58.1076 142.889 58.0507 142.548 58.0507C142.301 58.0507 142.112 58.0886 141.998 58.1834C141.865 58.2782 141.809 58.392 141.809 58.5247V58.5436C141.809 58.6195 141.828 58.6953 141.865 58.7711C141.903 58.828 141.979 58.8849 142.074 58.9418C142.169 58.9986 142.301 59.0555 142.472 59.0934C142.643 59.1503 142.851 59.2072 143.098 59.264C143.515 59.3588 143.913 59.4726 144.254 59.5863C144.595 59.719 144.879 59.8518 145.126 60.0413C145.372 60.212 145.543 60.4395 145.676 60.6859C145.808 60.9324 145.865 61.2357 145.865 61.577V61.5959C145.865 61.9751 145.789 62.3163 145.657 62.6197C145.505 62.923 145.315 63.1695 145.05 63.378C144.785 63.5866 144.481 63.7382 144.102 63.852C143.742 63.9657 143.325 64.0226 142.889 64.0226Z" fill="white"></path><path d="M148.69 58.2782H146.453V56.4772H152.974V58.2782H150.756V63.8899H148.69V58.2782Z" fill="white"></path><path d="M156.025 61.122L153.201 56.4772H155.552L157.087 59.1882L158.622 56.4772H160.916L158.092 61.0841V63.8899H156.025V61.122Z" fill="white"></path><path d="M166.47 61.9562C166.224 61.9562 165.996 61.9182 165.769 61.8235C165.56 61.7287 165.371 61.596 165.2 61.4443C165.029 61.2737 164.916 61.0841 164.821 60.8755C164.726 60.667 164.669 60.4205 164.669 60.1741V60.1551C164.669 59.9086 164.726 59.6812 164.821 59.4536C164.916 59.2451 165.048 59.0555 165.2 58.8849C165.371 58.7143 165.56 58.6005 165.769 58.5057C165.977 58.4109 166.224 58.373 166.47 58.373C166.717 58.373 166.944 58.4109 167.171 58.5057C167.38 58.6005 167.57 58.7332 167.74 58.8849C167.911 59.0555 168.024 59.2451 168.119 59.4536C168.214 59.6622 168.271 59.9086 168.271 60.1551V60.1741C168.271 60.4205 168.214 60.648 168.119 60.8755C168.024 61.0841 167.892 61.2737 167.74 61.4443C167.57 61.6149 167.38 61.7287 167.171 61.8235C166.963 61.9182 166.735 61.9562 166.47 61.9562Z" fill="white"></path><path d="M176.308 64.0416C175.777 64.0416 175.285 63.9468 174.811 63.7572C174.337 63.5676 173.939 63.3022 173.597 62.961C173.256 62.6197 172.991 62.2026 172.782 61.7476C172.574 61.2737 172.479 60.7618 172.479 60.212V60.193C172.479 59.6622 172.574 59.1503 172.782 58.6763C172.991 58.2024 173.256 57.8043 173.597 57.444C173.939 57.1028 174.356 56.8184 174.83 56.6288C175.303 56.4393 175.834 56.3255 176.403 56.3255C176.782 56.3255 177.123 56.3634 177.446 56.4393C177.749 56.5151 178.033 56.6288 178.299 56.7615C178.564 56.8943 178.791 57.0649 179 57.2545C179.208 57.444 179.398 57.6526 179.55 57.8801L177.995 59.0745C177.787 58.8091 177.559 58.6005 177.294 58.4299C177.047 58.2782 176.725 58.2024 176.365 58.2024C176.1 58.2024 175.872 58.2593 175.645 58.354C175.436 58.4488 175.247 58.6005 175.095 58.7711C174.943 58.9418 174.811 59.1503 174.735 59.3968C174.659 59.6432 174.602 59.8897 174.602 60.1551V60.1741C174.602 60.4584 174.64 60.7049 174.735 60.9514C174.83 61.1978 174.943 61.4064 175.095 61.577C175.247 61.7476 175.436 61.8993 175.645 61.9941C175.853 62.0889 176.1 62.1457 176.365 62.1457C176.555 62.1457 176.725 62.1268 176.896 62.0889C177.047 62.0509 177.199 61.9941 177.332 61.8993C177.464 61.8234 177.578 61.7287 177.711 61.6149C177.825 61.5012 177.938 61.3874 178.052 61.2547L179.606 62.3543C179.436 62.6007 179.246 62.8093 179.038 63.0178C178.829 63.2264 178.602 63.397 178.336 63.5487C178.071 63.7003 177.768 63.8141 177.446 63.8899C177.085 64.0037 176.706 64.0416 176.308 64.0416Z" fill="white"></path><path d="M184.194 64.0416C183.625 64.0416 183.094 63.9468 182.601 63.7383C182.109 63.5297 181.692 63.2643 181.331 62.923C180.971 62.5818 180.706 62.1647 180.497 61.7097C180.289 61.2357 180.194 60.7428 180.194 60.212V60.193C180.194 59.6622 180.289 59.1693 180.497 58.6953C180.706 58.2213 180.971 57.8232 181.331 57.463C181.692 57.1218 182.109 56.8374 182.601 56.6288C183.094 56.4203 183.625 56.3255 184.194 56.3255C184.762 56.3255 185.293 56.4203 185.786 56.6288C186.279 56.8374 186.696 57.1028 187.056 57.444C187.416 57.7853 187.682 58.2024 187.89 58.6574C188.099 59.1313 188.193 59.6243 188.193 60.1551V60.1741C188.193 60.7049 188.099 61.1978 187.89 61.6718C187.682 62.1457 187.416 62.5439 187.056 62.9041C186.696 63.2453 186.279 63.5297 185.786 63.7383C185.312 63.9468 184.781 64.0416 184.194 64.0416ZM184.213 62.1837C184.497 62.1837 184.762 62.1268 184.99 62.032C185.217 61.9182 185.426 61.7855 185.578 61.5959C185.748 61.4064 185.862 61.1978 185.957 60.9703C186.051 60.7239 186.089 60.4774 186.089 60.212V60.193C186.089 59.9276 186.051 59.6622 185.957 59.4347C185.862 59.1882 185.729 58.9797 185.559 58.7901C185.388 58.6005 185.18 58.4678 184.952 58.354C184.725 58.2403 184.459 58.1834 184.175 58.1834C183.89 58.1834 183.625 58.2403 183.398 58.3351C183.17 58.4488 182.962 58.5816 182.81 58.7711C182.639 58.9607 182.507 59.1693 182.431 59.3968C182.336 59.6432 182.298 59.8897 182.298 60.1551V60.1741C182.298 60.4395 182.336 60.7049 182.431 60.9324C182.526 61.1789 182.658 61.3874 182.81 61.577C182.981 61.7666 183.17 61.8993 183.417 62.013C183.682 62.1268 183.928 62.1837 184.213 62.1837Z" fill="white"></path><path d="M189.274 56.4772H191.454L193.217 59.3589L194.98 56.4772H197.16V63.8899H195.112V59.6243L193.217 62.5249H193.179L191.302 59.6432V63.8899H189.274V56.4772Z" fill="white"></path><path d="M198.486 56.4772H201.671C202.145 56.4772 202.562 56.534 202.941 56.6478C203.32 56.7615 203.642 56.9322 203.908 57.1597C204.173 57.3872 204.382 57.6526 204.533 57.9749C204.685 58.2972 204.742 58.6764 204.742 59.0745V59.0934C204.742 59.5295 204.666 59.9086 204.496 60.2499C204.344 60.5912 204.116 60.8566 203.832 61.0841C203.548 61.3116 203.206 61.4822 202.827 61.596C202.429 61.7097 202.012 61.7666 201.557 61.7666H200.534V63.8899H198.468V56.4772H198.486ZM201.519 60.1551C201.88 60.1551 202.183 60.0603 202.391 59.8897C202.6 59.7191 202.695 59.4726 202.695 59.1882V59.1693C202.695 58.847 202.581 58.6005 202.391 58.4299C202.183 58.2593 201.899 58.1834 201.519 58.1834H200.553V60.1551H201.519Z" fill="white"></path><path d="M208.192 56.4203H210.182L213.348 63.8899H211.149L210.599 62.5628H207.737L207.206 63.8899H205.045L208.192 56.4203ZM209.993 60.9893L209.159 58.8849L208.325 60.9893H209.993Z" fill="white"></path><path d="M214.049 56.4772H215.964L219.016 60.4016V56.4772H221.044V63.8899H219.243L216.059 59.8139V63.8899H214.03V56.4772H214.049Z" fill="white"></path><path d="M224.532 61.122L221.707 56.4772H224.058L225.593 59.1882L227.129 56.4772H229.422L226.598 61.0841V63.8899H224.532V61.122Z" fill="white"></path></svg> 